<svg width="99" height="107" viewBox="0 0 99 107" fill="none" xmlns="http://www.w3.org/2000/svg">
<path fill-rule="evenodd" clip-rule="evenodd" d="M13.5242 33.2374C13.9261 21.7273 22.8078 12.6952 33.3619 13.0638L43.7551 13.4265C54.9894 13.8188 63.7496 24.0691 63.3217 36.321C62.8939 48.5729 53.44 58.1871 42.2057 57.7948L26.1311 57.2336L25.8693 64.7318C25.7281 68.7755 22.6075 71.9489 18.8993 71.8195C15.1911 71.69 12.2995 68.3066 12.4407 64.2629L13.5242 33.2374ZM26.6426 42.5887L42.7171 43.1498C46.535 43.2831 49.7479 40.0158 49.8933 35.8521C50.0387 31.6883 47.0615 28.2048 43.2436 28.0715L32.8504 27.7088C29.7127 27.5992 27.0722 30.2844 26.9527 33.7063L26.6426 42.5887Z" fill="#EC2327"/>
<path fill-rule="evenodd" clip-rule="evenodd" d="M64.7345 50.0963C65.1886 49.3008 65.984 48.7949 66.8417 48.8249L72.4055 49.0191L72.6673 41.5212C72.8086 37.4771 75.9288 34.3036 79.637 34.4331C83.3453 34.5626 86.2371 37.946 86.0959 41.9901L85.0125 73.015C84.6105 84.5253 75.7287 93.5579 65.1748 93.1894L54.7813 92.8264C43.547 92.4341 34.7868 82.1834 35.2146 69.9315C35.2942 67.652 35.6384 65.9582 36.2757 64.1206C36.6042 63.1729 37.472 62.5914 38.3999 62.6238L42.2703 62.759C51.0857 63.0668 59.7239 58.879 64.7345 50.0963ZM55.8192 63.1033L71.8941 63.664L71.5839 72.546C71.4644 75.9683 68.8236 78.6536 65.6862 78.544L55.2927 78.1811C51.4749 78.0477 48.4977 74.5643 48.6431 70.4005C48.7885 66.2366 52.0014 62.97 55.8192 63.1033Z" fill="#0070C0"/>
</svg>
